<svg version="1.1" id="Layer_1" xmlns="http://www.w3.org/2000/svg" xmlns:xlink="http://www.w3.org/1999/xlink" x="0px" y="0px"
	 width="100%" viewBox="0 0 1200 1200" enable-background="new 0 0 1200 1200" xml:space="preserve">
<path fill="#FFFFFF" opacity="1.000000" stroke="none" 
	d="
M666.000000,1201.000000 
	C444.000000,1201.000000 222.500000,1201.000000 1.000000,1201.000000 
	C1.000000,801.000000 1.000000,401.000000 1.000000,1.000000 
	C401.000000,1.000000 801.000000,1.000000 1201.000000,1.000000 
	C1201.000000,401.000000 1201.000000,801.000000 1201.000000,1201.000000 
	C1022.833313,1201.000000 844.666687,1201.000000 666.000000,1201.000000 
M1056.499878,818.532898 
	C1074.996216,818.532959 1093.492432,818.556213 1111.988770,818.517273 
	C1116.801025,818.507141 1121.666748,818.724792 1126.415771,818.117065 
	C1151.548828,814.901001 1172.067993,793.000244 1173.577759,768.067932 
	C1175.193237,741.390686 1158.571411,716.825134 1133.238525,711.123779 
	C1122.066040,708.609375 1110.104980,709.080933 1098.501587,709.075745 
	C869.384827,708.972778 640.268066,708.998657 411.151306,709.005249 
	C409.153259,709.005310 407.151947,709.042480 405.157684,709.157837 
	C370.515778,711.161316 352.530884,740.399170 353.410065,765.067322 
	C354.526123,796.381836 378.683319,818.853943 410.160706,818.836792 
	C587.281982,818.740479 764.403320,818.631470 941.524597,818.535950 
	C979.516296,818.515442 1017.508057,818.532776 1056.499878,818.532898 
M964.500000,490.840607 
	C1014.999512,490.840607 1065.499023,490.856049 1115.998535,490.808411 
	C1119.647827,490.804962 1123.323975,490.546295 1126.941040,490.059998 
	C1149.892456,486.974213 1168.747681,468.833771 1172.806030,446.059875 
	C1177.038940,422.306763 1165.884155,398.931122 1145.201782,387.805969 
	C1134.571411,382.087860 1123.232300,381.062805 1111.385620,381.069000 
	C878.888123,381.190582 646.390625,381.152405 413.893127,381.202362 
	C408.415558,381.203522 402.859009,381.369476 397.474152,382.267334 
	C372.746094,386.390442 353.725067,409.338959 353.475647,434.966492 
	C353.218994,461.337158 370.726166,484.408905 395.707947,488.875427 
	C406.576904,490.818695 417.892548,490.759644 429.005798,490.766205 
	C607.170532,490.871643 785.335266,490.840607 964.500000,490.840607 
M706.426147,654.862732 
	C713.909424,653.560669 721.808228,653.370544 728.801208,650.756714 
	C753.950806,641.356506 767.852356,615.468933 762.929504,588.815308 
	C758.477966,564.713013 734.823303,545.029846 710.218689,545.018494 
	C660.236938,544.995605 610.255188,545.000732 560.273438,545.000244 
	C401.656311,544.998596 243.039154,545.008911 84.422020,544.977112 
	C74.828125,544.975159 65.435936,545.848511 56.774044,550.335144 
	C41.867455,558.056274 30.485466,568.812866 28.627350,586.482178 
	C27.867496,593.707825 29.188768,601.131470 28.751696,608.416443 
	C27.922424,622.238403 34.438938,632.393494 44.147087,641.001953 
	C56.101517,651.602234 70.305672,654.998108 86.138550,654.984070 
	C292.573914,654.801147 499.009521,654.862610 706.426147,654.862732 
M492.499817,1146.534424 
	C617.807800,1146.534546 743.115845,1146.538208 868.423828,1146.515137 
	C871.913147,1146.514526 875.413391,1146.353271 878.889954,1146.052124 
	C902.267517,1144.026978 923.045837,1124.879761 926.859070,1101.917114 
	C931.133667,1076.175781 918.473938,1051.823120 895.799805,1041.860229 
	C885.154785,1037.182861 874.030151,1036.734253 862.613953,1036.745483 
	C683.652649,1036.922119 504.690826,1037.143311 325.730011,1036.835449 
	C288.276001,1036.770996 265.083252,1074.851807 272.694092,1104.703003 
	C278.996368,1129.421753 301.085968,1146.511597 327.533142,1146.525757 
	C382.188690,1146.554688 436.844238,1146.534302 492.499817,1146.534424 
M713.039917,326.674957 
	C715.348206,326.358063 717.686646,326.183685 719.960205,325.702637 
	C746.906128,320.001709 766.303223,294.045746 763.534180,267.457336 
	C760.528992,238.602676 737.050476,217.136780 708.484924,217.136581 
	C532.704102,217.135361 356.923279,217.135956 181.142456,217.136063 
	C174.813354,217.136063 168.480347,216.992340 162.155792,217.162384 
	C131.484436,217.987015 108.332954,240.700714 107.361771,270.822540 
	C106.378036,301.333405 131.601410,326.858948 162.789474,326.860260 
	C344.235260,326.867950 525.681030,326.864288 707.126831,326.860046 
	C708.791870,326.859985 710.456848,326.799866 713.039917,326.674957 
M113.542084,952.845398 
	C124.426567,972.208862 140.962448,982.388550 163.180328,982.584229 
	C196.005951,982.873291 228.834900,982.861572 261.662384,982.850281 
	C383.148041,982.808472 504.633667,982.698303 626.119324,982.652283 
	C653.114075,982.642090 680.111938,983.066833 707.102478,982.765320 
	C725.105225,982.564270 740.380859,976.013367 751.972229,961.526001 
	C776.158142,931.297485 760.834290,884.248047 723.238770,875.223877 
	C714.032715,873.014038 704.163818,872.948914 694.598999,872.942078 
	C519.115295,872.816650 343.631500,872.850647 168.147736,872.849121 
	C158.441132,872.849060 148.844635,873.490967 139.794724,877.500732 
	C116.089668,888.003845 97.791130,918.853394 113.542084,952.845398 
M631.500000,56.160610 
	C533.836548,56.160610 436.173065,56.173737 338.509583,56.131645 
	C331.855408,56.128777 325.183838,55.316746 318.552979,55.612701 
	C313.320709,55.846241 307.752625,56.268639 303.000427,58.225960 
	C281.037476,67.272018 267.073578,93.833755 271.417145,117.205353 
	C276.411469,144.078461 299.134338,163.001114 326.518768,162.994766 
	C508.011108,162.952682 689.503479,162.891907 870.995789,162.840652 
	C902.791748,162.831680 926.351624,139.958374 927.178284,108.276146 
	C927.783752,85.071861 911.271606,61.909931 889.801208,56.867573 
	C883.951050,55.493649 877.605042,56.031872 871.486633,56.031036 
	C827.823242,56.025082 784.159851,56.123814 740.496460,56.155304 
	C704.497620,56.181271 668.498840,56.160618 631.500000,56.160610 
M873.644958,654.839905 
	C955.109863,654.737793 1036.578125,654.177551 1118.037964,654.772705 
	C1148.061035,654.992065 1174.934570,628.828186 1173.724365,598.053467 
	C1172.586426,569.115295 1148.831421,545.186768 1119.983643,545.153748 
	C1103.157471,545.134521 1086.331421,545.000061 1069.505249,545.007996 
	C1003.528870,545.039124 937.552307,545.048584 871.576477,545.267395 
	C866.171692,545.285339 860.558105,546.141846 855.406250,547.765869 
	C830.935120,555.480164 814.360168,582.494446 818.238647,607.684570 
	C822.391846,634.658752 845.037354,654.270386 873.644958,654.839905 
M1052.402832,874.941467 
	C1048.808228,874.294922 1045.214722,873.092529 1041.618774,873.085022 
	C984.632141,872.965942 927.640686,872.562378 870.659973,873.153076 
	C832.752930,873.546082 807.135681,913.433289 822.056946,948.332397 
	C832.163147,971.969604 851.000916,982.708130 876.663391,982.601135 
	C930.654541,982.376038 984.647461,982.611023 1038.639282,982.484619 
	C1053.949585,982.448730 1066.901855,976.250671 1076.987061,964.938110 
	C1104.494629,934.082886 1092.585693,889.564392 1052.402832,874.941467 
M858.655151,218.978180 
	C858.012634,219.146240 857.364014,219.294098 856.728455,219.485306 
	C831.846191,226.971024 814.883911,252.707687 818.210693,277.921600 
	C821.855042,305.542267 842.934143,325.759125 869.875305,326.430023 
	C895.847595,327.076752 921.841736,326.911621 947.826599,326.980865 
	C976.815491,327.058075 1005.806580,326.796753 1034.793457,327.050964 
	C1066.248169,327.326813 1091.386597,303.593292 1091.575317,272.974426 
	C1091.772217,241.034760 1067.909912,217.180634 1035.780151,217.155731 
	C984.794678,217.116211 933.808960,216.973831 882.823853,217.081635 
	C875.041077,217.098083 867.260681,218.223679 858.655151,218.978180 
M78.006378,818.569885 
	C133.311462,818.592957 188.618912,818.933411 243.920761,818.522034 
	C277.922241,818.269165 301.021454,792.618164 299.003815,758.712769 
	C297.451599,732.627563 273.804413,709.372314 247.672241,709.222412 
	C191.539124,708.900330 135.403259,709.000854 79.268600,709.043152 
	C66.705254,709.052612 55.345310,712.924011 45.716515,721.189880 
	C35.554504,729.913452 27.491524,739.727051 28.938503,754.391846 
	C29.163977,756.677124 28.614693,759.030334 28.531015,761.355957 
	C28.066301,774.272034 28.254808,786.829773 37.082764,797.806580 
	C47.499756,810.759277 60.992584,816.940308 78.006378,818.569885 
M29.884285,415.696960 
	C29.540865,417.823639 28.922413,419.947662 28.901558,422.077484 
	C28.810486,431.378571 28.469774,440.709686 29.090338,449.971558 
	C29.401985,454.622925 30.739733,459.631439 33.053406,463.649200 
	C43.207363,481.281799 59.315853,490.433197 79.155983,490.651703 
	C134.132401,491.257202 189.120178,490.973541 244.102676,490.795593 
	C261.072754,490.740692 275.969116,484.905762 286.611542,471.240875 
	C300.550629,453.342987 303.843567,433.310730 293.978455,412.657776 
	C284.078979,391.933014 266.846039,381.223389 243.619614,381.165863 
	C201.633530,381.061890 159.647018,381.136322 117.660675,381.136383 
	C104.999939,381.136383 92.336929,380.983337 79.678955,381.170380 
	C56.873516,381.507324 37.340008,394.881409 29.884285,415.696960 
z"/>
<path fill="#154069" opacity="1.000000" stroke="none" 
	d="
M1055.999756,818.532837 
	C1017.508057,818.532776 979.516296,818.515442 941.524597,818.535950 
	C764.403320,818.631470 587.281982,818.740479 410.160706,818.836792 
	C378.683319,818.853943 354.526123,796.381836 353.410065,765.067322 
	C352.530884,740.399170 370.515778,711.161316 405.157684,709.157837 
	C407.151947,709.042480 409.153259,709.005310 411.151306,709.005249 
	C640.268066,708.998657 869.384827,708.972778 1098.501587,709.075745 
	C1110.104980,709.080933 1122.066040,708.609375 1133.238525,711.123779 
	C1158.571411,716.825134 1175.193237,741.390686 1173.577759,768.067932 
	C1172.067993,793.000244 1151.548828,814.901001 1126.415771,818.117065 
	C1121.666748,818.724792 1116.801025,818.507141 1111.988770,818.517273 
	C1093.492432,818.556213 1074.996216,818.532959 1055.999756,818.532837 
z"/>
<path fill="#15406A" opacity="1.000000" stroke="none" 
	d="
M964.000000,490.840576 
	C785.335266,490.840607 607.170532,490.871643 429.005798,490.766205 
	C417.892548,490.759644 406.576904,490.818695 395.707947,488.875427 
	C370.726166,484.408905 353.218994,461.337158 353.475647,434.966492 
	C353.725067,409.338959 372.746094,386.390442 397.474152,382.267334 
	C402.859009,381.369476 408.415558,381.203522 413.893127,381.202362 
	C646.390625,381.152405 878.888123,381.190582 1111.385620,381.069000 
	C1123.232300,381.062805 1134.571411,382.087860 1145.201782,387.805969 
	C1165.884155,398.931122 1177.038940,422.306763 1172.806030,446.059875 
	C1168.747681,468.833771 1149.892456,486.974213 1126.941040,490.059998 
	C1123.323975,490.546295 1119.647827,490.804962 1115.998535,490.808411 
	C1065.499023,490.856049 1014.999512,490.840607 964.000000,490.840576 
z"/>
<path fill="#A78656" opacity="1.000000" stroke="none" 
	d="
M705.935608,654.862671 
	C499.009521,654.862610 292.573914,654.801147 86.138550,654.984070 
	C70.305672,654.998108 56.101517,651.602234 44.147087,641.001953 
	C34.438938,632.393494 27.922424,622.238403 28.751696,608.416443 
	C29.188768,601.131470 27.867496,593.707825 28.627350,586.482178 
	C30.485466,568.812866 41.867455,558.056274 56.774044,550.335144 
	C65.435936,545.848511 74.828125,544.975159 84.422020,544.977112 
	C243.039154,545.008911 401.656311,544.998596 560.273438,545.000244 
	C610.255188,545.000732 660.236938,544.995605 710.218689,545.018494 
	C734.823303,545.029846 758.477966,564.713013 762.929504,588.815308 
	C767.852356,615.468933 753.950806,641.356506 728.801208,650.756714 
	C721.808228,653.370544 713.909424,653.560669 705.935608,654.862671 
z"/>
<path fill="#15406A" opacity="1.000000" stroke="none" 
	d="
M491.999817,1146.534302 
	C436.844238,1146.534302 382.188690,1146.554688 327.533142,1146.525757 
	C301.085968,1146.511597 278.996368,1129.421753 272.694092,1104.703003 
	C265.083252,1074.851807 288.276001,1036.770996 325.730011,1036.835449 
	C504.690826,1037.143311 683.652649,1036.922119 862.613953,1036.745483 
	C874.030151,1036.734253 885.154785,1037.182861 895.799805,1041.860229 
	C918.473938,1051.823120 931.133667,1076.175781 926.859070,1101.917114 
	C923.045837,1124.879761 902.267517,1144.026978 878.889954,1146.052124 
	C875.413391,1146.353271 871.913147,1146.514526 868.423828,1146.515137 
	C743.115845,1146.538208 617.807800,1146.534546 491.999817,1146.534302 
z"/>
<path fill="#A78757" opacity="1.000000" stroke="none" 
	d="
M712.580933,326.721375 
	C710.456848,326.799866 708.791870,326.859985 707.126831,326.860046 
	C525.681030,326.864288 344.235260,326.867950 162.789474,326.860260 
	C131.601410,326.858948 106.378036,301.333405 107.361771,270.822540 
	C108.332954,240.700714 131.484436,217.987015 162.155792,217.162384 
	C168.480347,216.992340 174.813354,217.136063 181.142456,217.136063 
	C356.923279,217.135956 532.704102,217.135361 708.484924,217.136581 
	C737.050476,217.136780 760.528992,238.602676 763.534180,267.457336 
	C766.303223,294.045746 746.906128,320.001709 719.960205,325.702637 
	C717.686646,326.183685 715.348206,326.358063 712.580933,326.721375 
z"/>
<path fill="#A78657" opacity="1.000000" stroke="none" 
	d="
M113.356987,952.517395 
	C97.791130,918.853394 116.089668,888.003845 139.794724,877.500732 
	C148.844635,873.490967 158.441132,872.849060 168.147736,872.849121 
	C343.631500,872.850647 519.115295,872.816650 694.598999,872.942078 
	C704.163818,872.948914 714.032715,873.014038 723.238770,875.223877 
	C760.834290,884.248047 776.158142,931.297485 751.972229,961.526001 
	C740.380859,976.013367 725.105225,982.564270 707.102478,982.765320 
	C680.111938,983.066833 653.114075,982.642090 626.119324,982.652283 
	C504.633667,982.698303 383.148041,982.808472 261.662384,982.850281 
	C228.834900,982.861572 196.005951,982.873291 163.180328,982.584229 
	C140.962448,982.388550 124.426567,972.208862 113.356987,952.517395 
z"/>
<path fill="#153F69" opacity="1.000000" stroke="none" 
	d="
M632.000000,56.160618 
	C668.498840,56.160618 704.497620,56.181271 740.496460,56.155304 
	C784.159851,56.123814 827.823242,56.025082 871.486633,56.031036 
	C877.605042,56.031872 883.951050,55.493649 889.801208,56.867573 
	C911.271606,61.909931 927.783752,85.071861 927.178284,108.276146 
	C926.351624,139.958374 902.791748,162.831680 870.995789,162.840652 
	C689.503479,162.891907 508.011108,162.952682 326.518768,162.994766 
	C299.134338,163.001114 276.411469,144.078461 271.417145,117.205353 
	C267.073578,93.833755 281.037476,67.272018 303.000427,58.225960 
	C307.752625,56.268639 313.320709,55.846241 318.552979,55.612701 
	C325.183838,55.316746 331.855408,56.128777 338.509583,56.131645 
	C436.173065,56.173737 533.836548,56.160610 632.000000,56.160618 
z"/>
<path fill="#15406A" opacity="1.000000" stroke="none" 
	d="
M873.166748,654.839783 
	C845.037354,654.270386 822.391846,634.658752 818.238647,607.684570 
	C814.360168,582.494446 830.935120,555.480164 855.406250,547.765869 
	C860.558105,546.141846 866.171692,545.285339 871.576477,545.267395 
	C937.552307,545.048584 1003.528870,545.039124 1069.505249,545.007996 
	C1086.331421,545.000061 1103.157471,545.134521 1119.983643,545.153748 
	C1148.831421,545.186768 1172.586426,569.115295 1173.724365,598.053467 
	C1174.934570,628.828186 1148.061035,654.992065 1118.037964,654.772705 
	C1036.578125,654.177551 955.109863,654.737793 873.166748,654.839783 
z"/>
<path fill="#15406A" opacity="1.000000" stroke="none" 
	d="
M1052.793457,875.032959 
	C1092.585693,889.564392 1104.494629,934.082886 1076.987061,964.938110 
	C1066.901855,976.250671 1053.949585,982.448730 1038.639282,982.484619 
	C984.647461,982.611023 930.654541,982.376038 876.663391,982.601135 
	C851.000916,982.708130 832.163147,971.969604 822.056946,948.332397 
	C807.135681,913.433289 832.752930,873.546082 870.659973,873.153076 
	C927.640686,872.562378 984.632141,872.965942 1041.618774,873.085022 
	C1045.214722,873.092529 1048.808228,874.294922 1052.793457,875.032959 
z"/>
<path fill="#15406A" opacity="1.000000" stroke="none" 
	d="
M859.067139,218.907227 
	C867.260681,218.223679 875.041077,217.098083 882.823853,217.081635 
	C933.808960,216.973831 984.794678,217.116211 1035.780151,217.155731 
	C1067.909912,217.180634 1091.772217,241.034760 1091.575317,272.974426 
	C1091.386597,303.593292 1066.248169,327.326813 1034.793457,327.050964 
	C1005.806580,326.796753 976.815491,327.058075 947.826599,326.980865 
	C921.841736,326.911621 895.847595,327.076752 869.875305,326.430023 
	C842.934143,325.759125 821.855042,305.542267 818.210693,277.921600 
	C814.883911,252.707687 831.846191,226.971024 856.728455,219.485306 
	C857.364014,219.294098 858.012634,219.146240 859.067139,218.907227 
z"/>
<path fill="#A78757" opacity="1.000000" stroke="none" 
	d="
M77.562416,818.479858 
	C60.992584,816.940308 47.499756,810.759277 37.082764,797.806580 
	C28.254808,786.829773 28.066301,774.272034 28.531015,761.355957 
	C28.614693,759.030334 29.163977,756.677124 28.938503,754.391846 
	C27.491524,739.727051 35.554504,729.913452 45.716515,721.189880 
	C55.345310,712.924011 66.705254,709.052612 79.268600,709.043152 
	C135.403259,709.000854 191.539124,708.900330 247.672241,709.222412 
	C273.804413,709.372314 297.451599,732.627563 299.003815,758.712769 
	C301.021454,792.618164 277.922241,818.269165 243.920761,818.522034 
	C188.618912,818.933411 133.311462,818.592957 77.562416,818.479858 
z"/>
<path fill="#A78657" opacity="1.000000" stroke="none" 
	d="
M29.973507,415.293060 
	C37.340008,394.881409 56.873516,381.507324 79.678955,381.170380 
	C92.336929,380.983337 104.999939,381.136383 117.660675,381.136383 
	C159.647018,381.136322 201.633530,381.061890 243.619614,381.165863 
	C266.846039,381.223389 284.078979,391.933014 293.978455,412.657776 
	C303.843567,433.310730 300.550629,453.342987 286.611542,471.240875 
	C275.969116,484.905762 261.072754,490.740692 244.102676,490.795593 
	C189.120178,490.973541 134.132401,491.257202 79.155983,490.651703 
	C59.315853,490.433197 43.207363,481.281799 33.053406,463.649200 
	C30.739733,459.631439 29.401985,454.622925 29.090338,449.971558 
	C28.469774,440.709686 28.810486,431.378571 28.901558,422.077484 
	C28.922413,419.947662 29.540865,417.823639 29.973507,415.293060 
z"/>
</svg>